<?xml version="1.0" encoding="utf-8"?>
<!-- Generator: Adobe Illustrator 23.0.4, SVG Export Plug-In . SVG Version: 6.00 Build 0)  -->
<svg version="1.1" id="Capa_1" xmlns="http://www.w3.org/2000/svg" xmlns:xlink="http://www.w3.org/1999/xlink" x="0px" y="0px"
	 viewBox="0 0 563 563" style="enable-background:new 0 0 563 563;" xml:space="preserve">
<ellipse transform="matrix(0.1602 -0.9871 0.9871 0.1602 117.1209 700.6991)" cx="470.3" cy="281.5" rx="50" ry="50"/>
<path d="M470.3,188.8c-51.1,0-92.7,41.6-92.7,92.7c0,51.1,41.6,92.7,92.7,92.7c51.1,0,92.7-41.6,92.7-92.7
	C563,230.4,521.5,188.8,470.3,188.8z M470.3,349.8c-37.7,0-68.3-30.6-68.3-68.3c0-37.7,30.7-68.3,68.3-68.3
	c37.7,0,68.3,30.7,68.3,68.3C538.7,319.2,508,349.8,470.3,349.8z"/>
<path d="M281.5,377.7c-51.1,0-92.7,41.6-92.7,92.7c0,51.1,41.6,92.7,92.7,92.7c51.1,0,92.7-41.6,92.7-92.7
	C374.2,419.2,332.6,377.7,281.5,377.7z M328.5,504.3c3.6,3.6,3.6,9.4,0,13c-1.8,1.8-4.1,2.7-6.5,2.7c-2.4,0-4.7-0.9-6.5-2.7l-34-34
	l-34,34c-1.8,1.8-4.1,2.7-6.5,2.7s-4.7-0.9-6.5-2.7c-3.6-3.6-3.6-9.4,0-13l34-34l-34-34c-3.6-3.6-3.6-9.4,0-13c3.6-3.6,9.4-3.6,13,0
	l34,34l34-34c3.6-3.6,9.4-3.6,13,0s3.6,9.4,0,13l-34,34L328.5,504.3z"/>
<rect x="56.8" y="245.7" width="71.7" height="71.7"/>
<path d="M92.7,188.8C41.6,188.8,0,230.4,0,281.5c0,51.1,41.6,92.7,92.7,92.7s92.7-41.6,92.7-92.7
	C185.4,230.4,143.8,188.8,92.7,188.8z M146.9,326.6c0,5.1-4.1,9.2-9.2,9.2H47.6c-5.1,0-9.2-4.1-9.2-9.2v-90.1c0-5.1,4.1-9.2,9.2-9.2
	h90.1c5.1,0,9.2,4.1,9.2,9.2L146.9,326.6L146.9,326.6z"/>
<polygon points="240.8,117.5 322.3,117.5 281.5,45.4 "/>
<path d="M281.5,0c-51.1,0-92.7,41.6-92.7,92.7s41.6,92.7,92.7,92.7c51.1,0,92.7-41.6,92.7-92.7S332.6,0,281.5,0z M346,131.3
	c-1.6,2.8-4.7,4.6-7.9,4.6H225c-3.3,0-6.3-1.7-7.9-4.6c-1.6-2.8-1.7-6.3-0.1-9.1l56.5-99.8c1.6-2.9,4.7-4.7,8-4.7
	c3.3,0,6.4,1.8,8,4.7l56.5,99.8C347.6,125,347.6,128.5,346,131.3z"/>
</svg>
